<?xml version="1.0" standalone="no"?>
<!DOCTYPE svg PUBLIC "-//W3C//DTD SVG 20010904//EN"
 "http://www.w3.org/TR/2001/REC-SVG-20010904/DTD/svg10.dtd">
<svg version="1.0" xmlns="http://www.w3.org/2000/svg"
 width="69.000000pt" height="93.000000pt" viewBox="0 0 69.000000 93.000000"
 preserveAspectRatio="xMidYMid meet">

<g transform="translate(0.000000,93.000000) scale(0.100000,-0.100000)"
fill="#000000" stroke="none">
<path d="M0 465 l0 -465 345 0 345 0 0 465 0 465 -345 0 -345 0 0 -465z m660
0 l0 -425 -315 0 -315 0 0 425 0 425 315 0 315 0 0 -425z"/>
<path d="M290 756 c-69 -18 -115 -59 -152 -134 -30 -59 -33 -74 -33 -157 0
-83 3 -97 33 -158 25 -50 45 -75 80 -99 45 -32 51 -33 142 -33 86 0 101 3 155
30 64 32 74 48 51 80 -14 19 -15 19 -72 -10 -82 -41 -174 -47 -224 -13 -19 13
-46 44 -60 68 -22 39 -25 58 -25 135 0 77 3 96 25 135 36 63 80 90 149 90 50
0 73 -8 110 -36 2 -2 11 -27 21 -56 18 -55 39 -70 65 -48 21 18 21 192 0 210
-22 18 -55 3 -55 -26 l0 -25 -27 19 c-28 20 -95 42 -123 41 -8 0 -35 -6 -60
-13z"/>
</g>
</svg>
